<svg version="1.1" id="Layer_1" xmlns="http://www.w3.org/2000/svg" xmlns:xlink="http://www.w3.org/1999/xlink" x="0px" y="0px"
	 width="100%" viewBox="0 0 1080 1080" enable-background="new 0 0 1080 1080" xml:space="preserve">
<path fill="#05F600" opacity="0.000000" stroke="none" 
	d="
M711.000000,1081.000000 
	C474.027283,1081.000000 237.554581,1081.000000 1.040936,1081.000000 
	C1.040936,721.068848 1.040936,361.137665 1.040936,1.103249 
	C360.889587,1.103249 720.779175,1.103249 1080.834473,1.103249 
	C1080.834473,360.999939 1080.834473,720.999939 1080.834473,1081.000000 
	C957.803894,1081.000000 834.651917,1081.000000 711.000000,1081.000000 
M618.563538,749.260071 
	C619.032776,749.506836 619.501953,749.753601 620.335083,750.582764 
	C622.346497,754.735901 626.138062,755.041260 629.728638,754.074402 
	C633.480347,753.064087 634.187805,749.729309 634.005493,746.056152 
	C633.783081,741.573181 633.823547,737.065918 633.992554,732.578247 
	C634.130676,728.907349 633.423645,725.638306 629.444763,724.825317 
	C625.562256,724.031921 621.677002,724.379089 619.464722,729.208130 
	C619.019409,729.463135 618.574097,729.718201 617.775024,729.340576 
	C616.855469,724.282104 612.943176,724.406494 609.257568,724.721497 
	C605.285522,725.061096 604.226196,728.233521 604.095032,731.536011 
	C603.890381,736.687622 603.913208,741.857300 604.081726,747.011475 
	C604.195923,750.504456 605.228577,753.755066 609.380066,754.285706 
	C613.544250,754.817932 617.028198,753.813904 618.563538,749.260071 
M790.842712,751.740845 
	C791.227112,751.493347 791.611511,751.245850 792.253479,751.643127 
	C792.950928,752.067322 793.614685,752.778992 794.351746,752.865356 
	C797.305481,753.211365 800.723328,754.338135 803.102478,753.261047 
	C804.827576,752.480042 805.766418,748.744446 806.028870,746.219543 
	C806.487549,741.805847 806.044861,737.306396 806.191711,732.849792 
	C806.308105,729.318237 806.032471,725.867798 802.033447,724.903748 
	C797.993713,723.929932 794.050537,724.357544 791.442932,729.029053 
	C790.982422,729.016846 790.521851,729.004700 789.728210,728.347839 
	C786.421631,722.683594 781.227417,725.866150 776.605042,724.990173 
	C776.605042,734.947327 776.605042,744.307739 776.605042,753.990295 
	C778.390015,753.842896 779.770630,753.728882 781.578979,753.579590 
	C781.578979,749.466492 781.578979,745.708679 781.578979,741.950928 
	C782.087036,741.773071 782.595093,741.595276 783.103210,741.417480 
	C783.746521,742.695068 784.730408,743.916626 784.951965,745.263611 
	C785.271912,747.209351 784.861633,749.269226 785.119385,751.233643 
	C785.242432,752.171265 786.334412,753.805298 786.731628,753.732300 
	C788.034668,753.492676 789.220459,752.615295 790.842712,751.740845 
M562.538757,747.909668 
	C562.962830,748.381104 563.618347,748.786499 563.774963,749.334351 
	C565.210999,754.359314 569.089966,755.017029 573.233093,754.146912 
	C577.127991,753.328979 577.971863,750.118958 577.854187,746.443420 
	C577.700317,741.638428 577.736938,736.822998 577.843750,732.015442 
	C577.921814,728.499695 576.954041,725.536194 573.238220,724.826721 
	C569.564453,724.125427 565.884155,724.296570 564.008545,728.615601 
	C563.687622,729.354675 562.630737,729.774170 561.921692,729.469604 
	C559.614746,724.858093 556.247131,723.246399 551.972412,725.057678 
	C548.278564,726.622803 547.586304,730.088867 548.500732,733.359802 
	C549.211670,735.902771 551.207886,738.106018 552.727600,740.397522 
	C554.072937,742.426086 555.786011,744.252869 556.835693,746.412231 
	C557.192139,747.145508 556.020569,748.621582 555.547302,749.758240 
	C554.689453,749.030334 553.839355,748.293152 552.972046,747.576721 
	C551.707825,746.532532 550.431274,745.503357 549.160034,744.467773 
	C548.210449,749.457520 548.100769,753.434937 553.237244,754.215027 
	C557.639160,754.883423 561.268982,753.925781 562.538757,747.909668 
M297.605164,759.633850 
	C292.219482,752.899231 286.726166,746.247498 281.466644,739.415771 
	C257.663879,708.497681 241.888245,673.660767 232.308640,636.051208 
	C225.959610,611.124939 222.363724,585.709229 224.033524,559.866150 
	C225.004868,544.832947 225.546158,529.658569 228.095840,514.860413 
	C238.576477,454.032104 266.569519,402.352417 311.588837,360.107666 
	C337.953308,335.368011 368.386566,316.968903 402.073853,303.887421 
	C431.366974,292.512238 461.710876,285.702423 493.062378,284.406525 
	C509.398193,283.731323 525.855225,284.399933 542.184021,285.526123 
	C565.233826,287.115875 587.560059,292.654633 609.263000,300.536957 
	C637.336975,310.733093 663.094666,325.171448 685.471619,344.954956 
	C697.493835,355.583832 708.754517,367.213013 719.366150,379.264923 
	C734.148682,396.053772 745.335510,415.395569 755.968811,435.788696 
	C763.050659,452.535797 770.132507,469.282898 777.214417,486.029968 
	C772.748840,467.494751 765.433960,449.973511 756.930237,432.136627 
	C742.966919,403.357635 725.200256,377.239380 702.826599,354.287659 
	C683.645691,334.611115 661.828186,318.621216 637.401855,306.026947 
	C594.887024,284.106201 549.439392,274.792938 502.019440,275.796326 
	C457.021515,276.748383 414.026398,287.245667 373.513672,307.274353 
	C353.580017,317.129181 334.945374,329.082367 317.925507,343.271759 
	C298.695740,359.303589 281.952301,377.780457 267.568176,398.379181 
	C238.534332,439.956940 222.557892,486.328491 217.545242,536.461792 
	C216.113800,550.778320 217.032944,565.399963 217.704453,579.843079 
	C219.401581,616.344666 228.967377,650.935547 243.859985,684.203186 
	C253.376068,705.460571 266.018951,724.770264 279.961975,743.259094 
	C285.012421,749.956055 291.076935,755.888245 296.994049,762.773132 
	C305.803864,771.959045 314.854889,780.864075 325.793091,787.566040 
	C316.498444,778.461060 307.203796,769.356079 297.605164,759.633850 
M493.680573,586.129395 
	C492.501221,586.199707 491.321869,586.270020 490.142548,586.340332 
	C501.450134,578.190491 511.470459,569.389160 517.666504,557.252747 
	C527.565979,537.862305 536.881348,518.173401 546.405090,498.591919 
	C546.827576,497.723175 546.867920,496.668579 547.110657,495.592438 
	C544.022522,496.994232 541.367615,498.199341 538.310974,499.586823 
	C543.989380,491.785553 550.053528,485.162292 554.130066,477.483765 
	C561.675720,463.270813 568.207703,448.507507 574.803711,433.812653 
	C576.186646,430.731812 576.021301,426.956024 576.688477,422.749512 
	C570.862061,425.026031 566.301880,426.807800 561.741699,428.589569 
	C561.548340,428.178650 561.354980,427.767731 561.161621,427.356781 
	C571.560303,419.565643 579.906677,410.022552 582.753906,397.218597 
	C584.969849,387.253876 586.277954,376.940125 586.616028,366.735962 
	C587.302551,346.016022 574.181335,337.629822 556.432190,337.684143 
	C526.181824,337.776672 503.243439,352.181274 487.536102,378.028748 
	C486.062714,380.453247 484.634491,382.905273 483.185333,385.344513 
	C482.734131,385.136475 482.282959,384.928436 481.831787,384.720398 
	C484.609528,377.224823 487.387299,369.729248 490.540863,361.219604 
	C487.764069,362.644897 486.131683,363.421082 484.557007,364.300568 
	C467.563568,373.791779 454.731079,387.754333 444.337097,403.760986 
	C430.485748,425.091919 417.847534,447.207764 404.150391,468.642792 
	C396.163635,481.141479 390.243744,494.320312 386.815277,508.697815 
	C382.577515,526.469177 378.570282,544.259827 381.221893,562.733582 
	C381.780579,566.626038 382.536713,570.490173 383.201874,574.367432 
	C382.876404,574.465698 382.550934,574.564026 382.225464,574.662292 
	C381.005249,571.463379 379.785034,568.264465 378.564819,565.065552 
	C378.114563,565.149841 377.664276,565.234131 377.213989,565.318481 
	C376.690552,571.395569 376.316528,577.490051 375.613647,583.546326 
	C373.977020,597.647217 375.782928,611.562256 377.698212,625.466248 
	C380.187439,643.537048 386.071106,660.678894 392.175537,677.763000 
	C392.858459,679.674133 393.259369,682.076416 392.744690,683.966003 
	C386.028931,708.622559 378.626648,733.103271 372.431885,757.886841 
	C367.848511,776.223877 364.082367,794.844177 364.040863,813.920532 
	C364.034912,816.647644 364.889954,819.376587 365.346558,822.104675 
	C365.876007,822.136658 366.405457,822.168640 366.934906,822.200684 
	C367.993439,820.790527 369.379639,819.521667 370.058258,817.947815 
	C375.118347,806.212341 381.352783,794.781433 384.745300,782.567993 
	C393.462128,751.186584 400.956665,719.463989 408.778229,687.837769 
	C409.816620,683.638977 411.499725,680.135254 414.816132,677.370056 
	C422.796692,670.715942 430.343872,663.462891 438.773376,657.441895 
	C459.268188,642.803101 477.899872,626.506897 490.599426,604.336792 
	C494.573975,597.398254 498.516815,590.441528 502.474182,583.493164 
	C502.187378,583.284058 501.900574,583.075012 501.613770,582.865906 
	C499.211243,583.883362 496.808685,584.900879 493.680573,586.129395 
M754.416992,568.004089 
	C756.838745,568.004089 759.260437,568.004089 761.902039,568.004089 
	C761.902039,560.624878 762.802307,553.817444 761.664673,547.369507 
	C760.364197,539.998779 758.466064,532.222717 754.690369,525.898743 
	C744.749695,509.249084 719.308044,508.500122 704.662048,514.628174 
	C688.801025,521.264587 683.907959,534.876465 683.771179,550.608276 
	C683.501587,581.602783 683.518677,612.602600 683.754211,643.597595 
	C683.902771,663.139648 692.141235,680.708923 718.132935,682.803528 
	C743.799866,684.871948 760.864502,672.656311 761.794434,645.055969 
	C762.405823,626.911804 761.916138,608.730286 761.896851,590.565491 
	C761.895508,589.296448 761.705566,588.027649 761.594727,586.652466 
	C748.835815,586.652466 736.440247,586.652466 723.894653,586.652466 
	C723.894653,594.717346 723.894653,602.464905 723.894653,610.790405 
	C728.381287,610.790405 732.595459,610.790405 736.384705,610.790405 
	C736.384705,623.162659 736.794189,634.969360 736.241455,646.730896 
	C735.869934,654.636841 730.982483,658.649353 723.659241,658.757812 
	C716.251221,658.867493 711.662170,654.592957 710.732605,646.496399 
	C710.336243,643.044495 710.086731,639.555603 710.077209,636.082703 
	C710.018677,614.751648 709.989441,593.420227 710.078125,572.089417 
	C710.111267,564.118042 710.239990,556.131531 710.775024,548.182190 
	C711.337524,539.824707 715.716309,535.760925 723.374268,535.705444 
	C731.009460,535.650146 735.593018,539.776550 736.323120,547.886780 
	C736.914001,554.450867 737.052185,561.055664 737.409729,568.004089 
	C742.843506,568.004089 748.141724,568.004089 754.416992,568.004089 
M591.878418,640.466248 
	C592.804321,647.020020 592.808899,653.873901 594.827576,660.071716 
	C601.046021,679.164612 618.557617,684.331482 636.122009,682.762878 
	C651.502441,681.389343 662.470642,673.966309 667.183960,658.870728 
	C671.332153,645.585022 669.146606,631.898682 669.611511,618.458862 
	C660.748047,618.458862 652.518677,618.458862 644.088074,618.458862 
	C644.088074,627.831482 644.164856,636.819763 644.062317,645.805969 
	C643.988525,652.269714 640.948547,656.583557 635.783264,658.023865 
	C626.054810,660.736633 618.984375,655.419617 618.925354,645.016541 
	C618.808167,624.354919 618.890686,603.692139 618.890808,583.029846 
	C618.890930,571.698914 618.821289,560.367371 618.917297,549.037292 
	C618.976318,542.062134 622.247803,537.449890 627.699036,536.170044 
	C637.156738,533.949524 643.841675,539.051331 644.057251,548.847717 
	C644.210022,555.788391 644.086853,562.735046 644.086853,569.711426 
	C652.890076,569.711426 661.091614,569.711426 669.621460,569.711426 
	C669.621460,563.190430 669.757690,557.042358 669.596558,550.902161 
	C669.056396,530.315063 660.101807,513.502563 635.444702,511.469543 
	C619.888123,510.186829 604.676758,514.434631 596.982788,528.845520 
	C592.603027,537.048889 591.954651,546.003723 591.918823,554.994568 
	C591.806641,583.154785 591.877747,611.315735 591.878418,640.466248 
M549.083191,554.500000 
	C549.083191,568.332764 549.083252,582.165466 549.083252,595.998230 
	C549.083252,611.164246 549.123291,626.330383 549.069580,641.496216 
	C549.031860,652.141724 544.029358,657.087158 533.497620,657.083191 
	C530.894348,657.082214 528.291077,657.083069 525.633362,657.083069 
	C525.633362,665.054260 525.633362,672.802246 525.633362,680.849976 
	C533.219849,680.849976 540.735596,681.953186 547.731934,680.520264 
	C553.950256,679.246704 560.347717,676.100830 565.319824,672.105774 
	C573.668762,665.397705 575.558899,655.125610 575.616028,645.023010 
	C575.855286,602.692810 575.719482,560.360474 575.704651,518.028931 
	C575.704163,516.588440 575.528809,515.147949 575.433105,513.679443 
	C566.501099,513.679443 557.937622,513.679443 549.083191,513.679443 
	C549.083191,527.196228 549.083191,540.348083 549.083191,554.500000 
M473.561249,703.638428 
	C470.096008,703.638428 466.630768,703.638428 462.996857,703.638428 
	C462.996857,705.601074 462.996857,707.155701 462.996857,708.728271 
	C589.365479,708.728271 715.417053,708.728271 841.629883,708.728271 
	C841.629883,706.983459 841.629883,705.452698 841.629883,703.638489 
	C719.062256,703.638489 596.803284,703.638489 473.561249,703.638428 
M734.381714,745.384399 
	C734.381714,738.749634 734.381714,732.114807 734.381714,725.368042 
	C732.521240,725.368042 731.118042,725.368042 729.180298,725.368042 
	C729.180298,728.342407 729.180298,731.023926 729.180298,734.535461 
	C726.034485,730.732544 728.145996,722.856995 719.966980,725.532410 
	C719.966980,734.824951 719.966980,744.120667 719.966980,753.659668 
	C721.287109,753.659668 722.507324,753.659668 724.092407,753.659668 
	C724.092407,748.601013 724.092407,743.721130 724.092407,738.841187 
	C724.358459,738.797241 724.624573,738.753296 724.890625,738.709290 
	C726.312866,743.714722 727.735107,748.720154 729.214417,753.926514 
	C730.975403,753.845520 732.551208,753.773071 734.381714,753.688904 
	C734.381714,750.981262 734.381714,748.660339 734.381714,745.384399 
M643.070251,741.201477 
	C644.236511,745.444641 645.402771,749.687805 646.597961,754.036133 
	C648.564697,753.875061 649.986816,753.758545 651.550232,753.630493 
	C651.550232,744.075684 651.550232,734.828918 651.550232,725.331665 
	C649.923828,725.331665 648.535095,725.331665 647.030457,725.331665 
	C646.886841,728.416443 646.756104,731.223633 646.625366,734.030762 
	C642.259521,724.681824 642.259521,724.681824 637.046082,725.782471 
	C637.046082,734.298706 636.943237,742.911804 637.188599,751.514893 
	C637.216309,752.487427 639.206726,753.403992 640.286987,754.346558 
	C641.381836,749.682922 641.306030,746.038330 641.446899,742.402161 
	C641.474487,741.689941 642.341125,741.010254 643.070251,741.201477 
M590.026123,732.859985 
	C589.977112,733.354004 589.928162,733.848022 589.879150,734.342041 
	C588.421326,732.204895 588.263855,729.437073 586.890747,727.557190 
	C585.735046,725.974915 583.165466,725.425232 580.228088,723.903687 
	C580.228088,734.137512 580.107117,742.596313 580.367493,751.043396 
	C580.403687,752.218079 582.319641,753.334839 583.365479,754.478455 
	C583.849487,754.146118 584.333557,753.813782 584.817627,753.481445 
	C584.817627,748.545166 584.817627,743.608948 584.817627,738.672668 
	C585.058655,738.640686 585.299622,738.608704 585.540649,738.576660 
	C586.957947,743.607483 588.375244,748.638245 589.779236,753.621948 
	C591.664124,753.621948 593.214783,753.621948 594.829346,753.621948 
	C594.829346,744.050659 594.829346,734.787903 594.829346,725.354858 
	C593.242004,725.354858 591.871094,725.354858 590.030090,725.354858 
	C590.030090,727.770508 590.030090,729.900085 590.026123,732.859985 
M772.136475,726.502197 
	C769.028564,726.084595 765.583618,724.688660 762.934082,725.601501 
	C761.234314,726.187073 760.054504,730.108215 759.794434,732.652100 
	C759.306580,737.424011 759.551147,742.284241 759.683411,747.102417 
	C759.824280,752.237549 761.871155,754.287842 766.534607,754.347107 
	C771.230408,754.406799 773.445679,752.460938 773.821228,747.506348 
	C774.056030,744.409180 773.864929,741.279724 773.864929,737.907288 
	C771.368469,737.907288 769.286499,737.907288 766.482971,737.907288 
	C766.957397,739.476624 767.408936,740.729065 767.708069,742.016968 
	C768.130859,743.837341 768.687866,745.684509 768.682800,747.518860 
	C768.680603,748.294739 767.395264,749.067200 766.693176,749.841187 
	C766.089600,749.146301 764.981995,748.465271 764.962524,747.754456 
	C764.812622,742.276428 764.810181,736.791138 764.941956,731.312439 
	C764.960388,730.547302 765.959717,729.805786 766.504944,729.053345 
	C767.271179,729.756897 768.273865,730.334778 768.734070,731.200867 
	C769.155457,731.994019 768.990723,733.098511 769.112000,734.352722 
	C770.756531,734.279663 772.190857,734.215881 774.308105,734.121826 
	C773.651123,731.497864 773.105408,729.318115 772.136475,726.502197 
M676.466187,754.325500 
	C680.629089,754.543518 682.824341,752.130493 682.964905,748.405640 
	C683.251831,740.799622 683.050842,733.175171 683.050842,725.372925 
	C681.260559,725.372925 679.890137,725.372925 678.056580,725.372925 
	C678.056580,732.271729 678.139465,738.889832 677.995239,745.502991 
	C677.961365,747.056702 677.160522,748.593628 676.712524,750.138306 
	C676.014099,750.027466 675.315613,749.916626 674.617188,749.805786 
	C674.617188,741.664062 674.617188,733.522339 674.617188,725.247681 
	C672.315613,725.247681 670.875366,725.247681 669.027283,725.247681 
	C669.027283,732.858215 668.765320,740.316956 669.139160,747.743774 
	C669.322754,751.390747 671.117493,754.538879 676.466187,754.325500 
M540.961243,750.232666 
	C540.572388,754.518738 545.305298,754.697021 545.560547,753.528320 
	C547.143188,746.281677 544.326721,739.070557 545.846436,731.795837 
	C546.692993,727.743286 544.550293,725.058228 540.015869,725.042725 
	C537.586670,725.034485 535.157410,725.041260 532.551147,725.041260 
	C532.551147,734.981995 532.551147,744.237610 532.551147,753.877625 
	C534.203308,753.787415 535.559875,753.713379 537.476196,753.608765 
	C537.476196,749.344116 537.476196,745.497803 537.476196,741.327881 
	C542.808899,742.807678 540.239136,746.696899 540.961243,750.232666 
M746.677734,724.848938 
	C738.579895,724.360046 737.024719,725.830200 737.011841,734.004578 
	C737.005005,738.331116 736.903931,742.660950 737.037354,746.983337 
	C737.202332,752.326721 739.354614,754.415771 744.275818,754.339600 
	C748.839905,754.268921 750.926331,752.099243 751.104858,747.036621 
	C751.209351,744.074341 751.123901,741.105469 751.123901,737.899536 
	C748.647278,737.899536 746.542236,737.899536 743.878052,737.899536 
	C744.195923,739.335510 744.461365,740.526123 744.722839,741.717590 
	C745.151367,743.670227 745.804810,745.614014 745.885742,747.581116 
	C745.915710,748.310181 744.599365,749.094604 743.897034,749.853882 
	C743.280273,749.172485 742.148071,748.505493 742.128540,747.807312 
	C741.974609,742.322937 741.949463,736.829956 742.121399,731.347046 
	C742.146179,730.556274 743.434204,729.805115 744.137634,729.035522 
	C744.770813,729.864075 745.563721,730.619202 745.988647,731.543518 
	C746.353882,732.338013 746.299194,733.325562 746.471008,734.508789 
	C748.246460,734.303406 749.620300,734.144470 752.783569,733.778503 
	C750.594421,730.226624 749.004272,727.646484 746.677734,724.848938 
M814.145569,729.678955 
	C814.053528,728.231934 813.961487,726.784912 813.852539,725.071838 
	C812.088135,725.163269 810.686096,725.235901 809.007996,725.322876 
	C809.007996,733.120911 808.746521,740.591248 809.101746,748.032104 
	C809.330750,752.827148 811.959351,754.582336 816.855103,754.324585 
	C821.260254,754.092590 822.889343,751.393127 822.921387,747.392456 
	C822.970764,741.232422 822.809509,735.068054 822.983276,728.912476 
	C823.091736,725.068726 821.627869,724.198853 818.011230,725.801086 
	C818.011230,732.718079 818.109619,739.695923 817.908203,746.665100 
	C817.876953,747.746399 816.474121,748.788147 815.705566,749.848206 
	C815.185852,748.774231 814.249023,747.712402 814.217102,746.624146 
	C814.060974,741.300781 814.146057,735.970276 814.145569,729.678955 
M660.981567,736.253052 
	C660.093750,734.038330 659.205872,731.823608 658.122009,729.119751 
	C662.837463,728.551086 662.616089,736.092041 668.224976,731.766602 
	C666.776184,729.554443 665.747742,726.237305 663.626953,725.237976 
	C661.513550,724.241943 657.202087,724.597778 655.853638,726.125488 
	C654.150330,728.055237 653.700684,731.897034 654.156799,734.676758 
	C654.533447,736.972229 657.008606,738.926086 658.562744,741.024780 
	C659.733948,742.606262 661.284485,744.038452 661.956787,745.806885 
	C662.340759,746.817017 661.304077,748.367126 660.907043,749.674072 
	C659.979126,748.835266 658.966980,748.068481 658.161194,747.125305 
	C657.793823,746.695374 657.834045,745.917175 657.369507,743.924927 
	C655.601196,745.468079 653.455933,746.488525 653.467224,747.484497 
	C653.506714,750.958313 654.691040,754.040405 659.034241,754.345947 
	C663.115234,754.633057 666.242737,753.697632 667.243530,749.093323 
	C668.467407,743.462830 665.300842,740.013672 660.981567,736.253052 
M483.592133,736.357361 
	C482.186707,736.208984 480.781311,736.060608 479.600647,735.935913 
	C479.600647,733.554199 479.600647,731.770935 479.600647,729.677856 
	C482.086212,729.493164 484.354919,729.324646 486.725830,729.148560 
	C486.725830,727.830566 486.725830,726.604187 486.725830,725.278198 
	C482.667297,725.278198 478.903778,725.278198 474.991577,725.278198 
	C474.991577,734.892517 474.991577,744.279785 474.991577,753.690857 
	C479.102509,753.690857 482.881744,753.690857 487.067871,753.690857 
	C486.906616,752.085693 486.772247,750.748535 486.646179,749.493713 
	C483.920471,749.274353 481.689636,749.094849 479.530304,748.921143 
	C479.530304,746.089600 479.530304,743.800232 479.530304,741.243469 
	C481.433075,741.061584 483.183014,740.894287 485.580261,740.665161 
	C485.138702,739.050110 484.783051,737.749268 483.592133,736.357361 
M825.677063,750.018188 
	C826.055664,754.105591 826.055664,754.105591 830.333313,753.111450 
	C830.333313,751.507446 830.333252,749.848877 830.333252,748.190369 
	C830.333252,746.404297 830.333313,744.618225 830.333313,742.945740 
	C838.729675,741.295349 840.838928,737.887390 839.038879,729.665405 
	C838.070129,725.240417 834.200928,724.052185 825.676880,725.755737 
	C825.676880,733.487732 825.676880,741.301941 825.677063,750.018188 
M524.425354,749.203552 
	C523.650513,746.693970 522.875671,744.184326 522.006226,741.368164 
	C524.941833,741.042603 526.692627,740.848511 528.321106,740.667908 
	C530.463867,734.443787 524.537964,737.387268 523.058105,735.752930 
	C523.058105,733.560913 523.058105,731.641235 523.058105,729.637268 
	C525.503174,729.459961 527.628784,729.305847 529.729553,729.153503 
	C529.942688,724.627563 526.807617,723.748474 518.133911,725.729248 
	C518.133911,734.978088 518.133911,744.236145 518.133911,753.712402 
	C522.148438,753.712402 525.904053,753.712402 530.083557,753.712402 
	C529.968994,752.144897 529.870911,750.802368 529.755920,749.227905 
	C527.991028,749.227905 526.672302,749.227905 524.425354,749.203552 
M705.157349,738.482788 
	C705.157349,735.691589 705.157349,732.900391 705.157349,730.236389 
	C710.128845,728.930481 710.128845,728.930481 709.339478,725.335510 
	C704.727417,725.335510 700.132751,725.335510 695.538147,725.335510 
	C695.252136,725.827576 694.966125,726.319702 694.680176,726.811768 
	C696.322266,728.052673 697.964355,729.293579 700.271545,731.036987 
	C700.271545,737.883423 700.271545,745.669800 700.271545,753.692993 
	C702.054626,753.692993 703.466919,753.692993 705.157349,753.692993 
	C705.157349,748.796631 705.157349,744.140930 705.157349,738.482788 
M510.290253,729.387573 
	C511.922089,729.387573 513.553894,729.387573 515.142517,729.387573 
	C515.554932,724.699524 511.475708,723.638062 503.321899,725.823608 
	C503.321899,735.072449 503.321899,744.310364 503.321899,753.631287 
	C504.992371,753.631287 506.379425,753.631287 508.305481,753.631287 
	C508.305481,749.485352 508.305481,745.603027 508.305481,741.693237 
	C510.457733,741.474365 512.079712,741.309448 513.737488,741.140869 
	C513.737488,739.745422 513.737488,738.514099 513.737488,737.286926 
	C511.732147,737.040466 510.005371,736.828308 507.542358,736.525635 
	C508.228302,733.910828 508.812225,731.684814 510.290253,729.387573 
M500.574860,729.282288 
	C500.943665,727.998169 501.312469,726.713989 501.703827,725.351257 
	C497.036285,725.351257 493.269135,725.351257 489.275909,725.351257 
	C489.275909,734.905945 489.275909,744.154175 489.275909,753.658813 
	C490.884949,753.658813 492.268585,753.658813 494.155334,753.658813 
	C494.155334,749.563416 494.155334,745.653992 494.155334,741.698059 
	C496.278351,741.491455 497.912445,741.332458 499.685913,741.159851 
	C499.685913,739.798218 499.685913,738.569153 499.685913,737.263611 
	C497.699646,737.052185 495.962006,736.867310 494.424225,736.703613 
	C494.424225,734.073853 494.424225,731.849487 494.424225,729.371826 
	C496.419312,729.371826 498.075928,729.371826 500.574860,729.282288 
M690.073120,725.130371 
	C688.754822,725.842224 686.312805,726.519714 686.289795,727.271179 
	C686.021790,736.028442 686.118164,744.796814 686.118164,753.632446 
	C690.641479,753.632446 694.544861,753.632446 698.471924,753.632446 
	C699.901794,746.145508 693.064270,751.039124 690.826721,747.423523 
	C690.826721,740.815613 690.826721,733.175598 690.073120,725.130371 
M466.285217,741.411255 
	C468.586639,746.356323 462.529755,749.116516 462.539520,753.553528 
	C468.798492,754.168152 471.419037,752.892273 471.679169,748.246460 
	C472.102478,740.687012 471.793365,733.086548 471.793365,725.317017 
	C469.869171,725.317017 468.317902,725.317017 466.285217,725.317017 
	C466.285217,730.548584 466.285217,735.495056 466.285217,741.411255 
M712.040283,749.272644 
	C712.125854,750.716614 712.211365,752.160645 712.297302,753.610718 
	C714.038208,753.610718 715.421204,753.610718 716.747314,753.610718 
	C716.747314,743.939453 716.747314,734.567810 716.747314,724.899536 
	C714.965576,725.138733 713.578857,725.324829 712.040283,725.531372 
	C712.040283,733.401794 712.040283,740.859985 712.040283,749.272644 
M338.084656,799.289551 
	C341.474854,801.602173 344.865021,803.914856 348.255188,806.227478 
	C344.921112,799.778442 337.374908,794.931091 332.919373,795.610229 
	C334.591888,796.842468 336.020203,797.894775 338.084656,799.289551 
z"/>
<path fill="#FDFEFD" opacity="1.000000" stroke="none" 
	d="
M494.043365,586.023865 
	C496.808685,584.900879 499.211243,583.883362 501.613770,582.865906 
	C501.900574,583.075012 502.187378,583.284058 502.474182,583.493164 
	C498.516815,590.441528 494.573975,597.398254 490.599426,604.336792 
	C477.899872,626.506897 459.268188,642.803101 438.773376,657.441895 
	C430.343872,663.462891 422.796692,670.715942 414.816132,677.370056 
	C411.499725,680.135254 409.816620,683.638977 408.778229,687.837769 
	C400.956665,719.463989 393.462128,751.186584 384.745300,782.567993 
	C381.352783,794.781433 375.118347,806.212341 370.058258,817.947815 
	C369.379639,819.521667 367.993439,820.790527 366.934906,822.200684 
	C366.405457,822.168640 365.876007,822.136658 365.346558,822.104675 
	C364.889954,819.376587 364.034912,816.647644 364.040863,813.920532 
	C364.082367,794.844177 367.848511,776.223877 372.431885,757.886841 
	C378.626648,733.103271 386.028931,708.622559 392.744690,683.966003 
	C393.259369,682.076416 392.858459,679.674133 392.175537,677.763000 
	C386.071106,660.678894 380.187439,643.537048 377.698212,625.466248 
	C375.782928,611.562256 373.977020,597.647217 375.613647,583.546326 
	C376.316528,577.490051 376.690552,571.395569 377.213989,565.318481 
	C377.664276,565.234131 378.114563,565.149841 378.564819,565.065552 
	C379.785034,568.264465 381.005249,571.463379 382.225464,574.662292 
	C382.550934,574.564026 382.876404,574.465698 383.201874,574.367432 
	C382.536713,570.490173 381.780579,566.626038 381.221893,562.733582 
	C378.570282,544.259827 382.577515,526.469177 386.815277,508.697815 
	C390.243744,494.320312 396.163635,481.141479 404.150391,468.642792 
	C417.847534,447.207764 430.485748,425.091919 444.337097,403.760986 
	C454.731079,387.754333 467.563568,373.791779 484.557007,364.300568 
	C486.131683,363.421082 487.764069,362.644897 490.540863,361.219604 
	C487.387299,369.729248 484.609528,377.224823 481.831787,384.720398 
	C482.282959,384.928436 482.734131,385.136475 483.185333,385.344513 
	C484.634491,382.905273 486.062714,380.453247 487.536102,378.028748 
	C503.243439,352.181274 526.181824,337.776672 556.432190,337.684143 
	C574.181335,337.629822 587.302551,346.016022 586.616028,366.735962 
	C586.277954,376.940125 584.969849,387.253876 582.753906,397.218597 
	C579.906677,410.022552 571.560303,419.565643 561.161621,427.356781 
	C561.354980,427.767731 561.548340,428.178650 561.741699,428.589569 
	C566.301880,426.807800 570.862061,425.026031 576.688477,422.749512 
	C576.021301,426.956024 576.186646,430.731812 574.803711,433.812653 
	C568.207703,448.507507 561.675720,463.270813 554.130066,477.483765 
	C550.053528,485.162292 543.989380,491.785553 538.310974,499.586823 
	C541.367615,498.199341 544.022522,496.994232 547.110657,495.592438 
	C546.867920,496.668579 546.827576,497.723175 546.405090,498.591919 
	C536.881348,518.173401 527.565979,537.862305 517.666504,557.252747 
	C511.470459,569.389160 501.450134,578.190491 490.142548,586.340332 
	C491.321869,586.270020 492.501221,586.199707 494.043365,586.023865 
M521.678162,413.827087 
	C525.479309,408.795715 529.280518,403.764343 533.081726,398.732941 
	C532.665833,398.419647 532.249939,398.106384 531.834045,397.793091 
	C527.884521,402.860565 523.935059,407.928070 519.443420,413.379547 
	C512.366821,423.427124 504.887115,433.217865 498.290771,443.571381 
	C479.949646,472.359222 464.609161,502.763031 451.659363,534.311401 
	C443.220520,554.870056 435.716919,575.812561 427.370209,597.191833 
	C425.513000,603.818115 423.655792,610.444397 421.798615,617.070679 
	C421.868652,616.958923 421.938721,616.847168 422.008759,616.735413 
	C422.251648,616.825928 422.494537,616.916443 422.737427,617.006958 
	C424.818024,610.999573 426.898590,604.992188 429.322388,598.376221 
	C436.694550,580.226318 443.486450,561.812927 451.577454,543.989380 
	C463.175323,518.440308 474.979950,492.929016 488.105774,468.148193 
	C497.955383,449.552582 510.024200,432.132477 521.678162,413.827087 
M423.817017,503.000916 
	C423.422729,493.085480 423.028412,483.170044 422.634125,473.254608 
	C422.172791,473.290985 421.711487,473.327332 421.250153,473.363708 
	C419.486145,487.531799 420.524841,500.952820 423.889893,506.834778 
	C423.889893,505.747437 423.889893,504.759705 423.817017,503.000916 
M422.422882,469.966003 
	C422.430267,469.695251 422.437683,469.424469 422.445068,469.153717 
	C422.495972,469.363831 422.546844,469.573944 422.422882,469.966003 
z"/>
<path fill="#FCFFFC" opacity="1.000000" stroke="none" 
	d="
M753.928467,568.004089 
	C748.141724,568.004089 742.843506,568.004089 737.409729,568.004089 
	C737.052185,561.055664 736.914001,554.450867 736.323120,547.886780 
	C735.593018,539.776550 731.009460,535.650146 723.374268,535.705444 
	C715.716309,535.760925 711.337524,539.824707 710.775024,548.182190 
	C710.239990,556.131531 710.111267,564.118042 710.078125,572.089417 
	C709.989441,593.420227 710.018677,614.751648 710.077209,636.082703 
	C710.086731,639.555603 710.336243,643.044495 710.732605,646.496399 
	C711.662170,654.592957 716.251221,658.867493 723.659241,658.757812 
	C730.982483,658.649353 735.869934,654.636841 736.241455,646.730896 
	C736.794189,634.969360 736.384705,623.162659 736.384705,610.790405 
	C732.595459,610.790405 728.381287,610.790405 723.894653,610.790405 
	C723.894653,602.464905 723.894653,594.717346 723.894653,586.652466 
	C736.440247,586.652466 748.835815,586.652466 761.594727,586.652466 
	C761.705566,588.027649 761.895508,589.296448 761.896851,590.565491 
	C761.916138,608.730286 762.405823,626.911804 761.794434,645.055969 
	C760.864502,672.656311 743.799866,684.871948 718.132935,682.803528 
	C692.141235,680.708923 683.902771,663.139648 683.754211,643.597595 
	C683.518677,612.602600 683.501587,581.602783 683.771179,550.608276 
	C683.907959,534.876465 688.801025,521.264587 704.662048,514.628174 
	C719.308044,508.500122 744.749695,509.249084 754.690369,525.898743 
	C758.466064,532.222717 760.364197,539.998779 761.664673,547.369507 
	C762.802307,553.817444 761.902039,560.624878 761.902039,568.004089 
	C759.260437,568.004089 756.838745,568.004089 753.928467,568.004089 
z"/>
<path fill="#FBFFFB" opacity="1.000000" stroke="none" 
	d="
M591.878113,639.971313 
	C591.877747,611.315735 591.806641,583.154785 591.918823,554.994568 
	C591.954651,546.003723 592.603027,537.048889 596.982788,528.845520 
	C604.676758,514.434631 619.888123,510.186829 635.444702,511.469543 
	C660.101807,513.502563 669.056396,530.315063 669.596558,550.902161 
	C669.757690,557.042358 669.621460,563.190430 669.621460,569.711426 
	C661.091614,569.711426 652.890076,569.711426 644.086853,569.711426 
	C644.086853,562.735046 644.210022,555.788391 644.057251,548.847717 
	C643.841675,539.051331 637.156738,533.949524 627.699036,536.170044 
	C622.247803,537.449890 618.976318,542.062134 618.917297,549.037292 
	C618.821289,560.367371 618.890930,571.698914 618.890808,583.029846 
	C618.890686,603.692139 618.808167,624.354919 618.925354,645.016541 
	C618.984375,655.419617 626.054810,660.736633 635.783264,658.023865 
	C640.948547,656.583557 643.988525,652.269714 644.062317,645.805969 
	C644.164856,636.819763 644.088074,627.831482 644.088074,618.458862 
	C652.518677,618.458862 660.748047,618.458862 669.611511,618.458862 
	C669.146606,631.898682 671.332153,645.585022 667.183960,658.870728 
	C662.470642,673.966309 651.502441,681.389343 636.122009,682.762878 
	C618.557617,684.331482 601.046021,679.164612 594.827576,660.071716 
	C592.808899,653.873901 592.804321,647.020020 591.878113,639.971313 
z"/>
<path fill="#F0FBF0" opacity="1.000000" stroke="none" 
	d="
M755.876953,435.065704 
	C745.335510,415.395569 734.148682,396.053772 719.366150,379.264923 
	C708.754517,367.213013 697.493835,355.583832 685.471619,344.954956 
	C663.094666,325.171448 637.336975,310.733093 609.263000,300.536957 
	C587.560059,292.654633 565.233826,287.115875 542.184021,285.526123 
	C525.855225,284.399933 509.398193,283.731323 493.062378,284.406525 
	C461.710876,285.702423 431.366974,292.512238 402.073853,303.887421 
	C368.386566,316.968903 337.953308,335.368011 311.588837,360.107666 
	C266.569519,402.352417 238.576477,454.032104 228.095840,514.860413 
	C225.546158,529.658569 225.004868,544.832947 224.033524,559.866150 
	C222.363724,585.709229 225.959610,611.124939 232.308640,636.051208 
	C241.888245,673.660767 257.663879,708.497681 281.466644,739.415771 
	C286.726166,746.247498 292.219482,752.899231 297.691742,760.234558 
	C297.411804,761.279968 297.045258,761.724731 296.678741,762.169434 
	C291.076935,755.888245 285.012421,749.956055 279.961975,743.259094 
	C266.018951,724.770264 253.376068,705.460571 243.859985,684.203186 
	C228.967377,650.935547 219.401581,616.344666 217.704453,579.843079 
	C217.032944,565.399963 216.113800,550.778320 217.545242,536.461792 
	C222.557892,486.328491 238.534332,439.956940 267.568176,398.379181 
	C281.952301,377.780457 298.695740,359.303589 317.925507,343.271759 
	C334.945374,329.082367 353.580017,317.129181 373.513672,307.274353 
	C414.026398,287.245667 457.021515,276.748383 502.019440,275.796326 
	C549.439392,274.792938 594.887024,284.106201 637.401855,306.026947 
	C661.828186,318.621216 683.645691,334.611115 702.826599,354.287659 
	C725.200256,377.239380 742.966919,403.357635 756.930298,432.806824 
	C756.579163,434.006561 756.228027,434.536133 755.876953,435.065704 
z"/>
<path fill="#F9FFF9" opacity="1.000000" stroke="none" 
	d="
M549.083191,554.000000 
	C549.083191,540.348083 549.083191,527.196228 549.083191,513.679443 
	C557.937622,513.679443 566.501099,513.679443 575.433105,513.679443 
	C575.528809,515.147949 575.704163,516.588440 575.704651,518.028931 
	C575.719482,560.360474 575.855286,602.692810 575.616028,645.023010 
	C575.558899,655.125610 573.668762,665.397705 565.319824,672.105774 
	C560.347717,676.100830 553.950256,679.246704 547.731934,680.520264 
	C540.735596,681.953186 533.219849,680.849976 525.633362,680.849976 
	C525.633362,672.802246 525.633362,665.054260 525.633362,657.083069 
	C528.291077,657.083069 530.894348,657.082214 533.497620,657.083191 
	C544.029358,657.087158 549.031860,652.141724 549.069580,641.496216 
	C549.123291,626.330383 549.083252,611.164246 549.083252,595.998230 
	C549.083252,582.165466 549.083191,568.332764 549.083191,554.000000 
z"/>
<path fill="#F5FEF4" opacity="1.000000" stroke="none" 
	d="
M474.052795,703.638428 
	C596.803284,703.638489 719.062256,703.638489 841.629883,703.638489 
	C841.629883,705.452698 841.629883,706.983459 841.629883,708.728271 
	C715.417053,708.728271 589.365479,708.728271 462.996857,708.728271 
	C462.996857,707.155701 462.996857,705.601074 462.996857,703.638428 
	C466.630768,703.638428 470.096008,703.638428 474.052795,703.638428 
z"/>
<path fill="#F2FFF2" opacity="1.000000" stroke="none" 
	d="
M734.381714,745.861877 
	C734.381714,748.660339 734.381714,750.981262 734.381714,753.688904 
	C732.551208,753.773071 730.975403,753.845520 729.214417,753.926514 
	C727.735107,748.720154 726.312866,743.714722 724.890625,738.709290 
	C724.624573,738.753296 724.358459,738.797241 724.092407,738.841187 
	C724.092407,743.721130 724.092407,748.601013 724.092407,753.659668 
	C722.507324,753.659668 721.287109,753.659668 719.966980,753.659668 
	C719.966980,744.120667 719.966980,734.824951 719.966980,725.532410 
	C728.145996,722.856995 726.034485,730.732544 729.180298,734.535461 
	C729.180298,731.023926 729.180298,728.342407 729.180298,725.368042 
	C731.118042,725.368042 732.521240,725.368042 734.381714,725.368042 
	C734.381714,732.114807 734.381714,738.749634 734.381714,745.861877 
z"/>
<path fill="#EAFEEA" opacity="1.000000" stroke="none" 
	d="
M642.945557,740.758545 
	C642.341125,741.010254 641.474487,741.689941 641.446899,742.402161 
	C641.306030,746.038330 641.381836,749.682922 640.286987,754.346558 
	C639.206726,753.403992 637.216309,752.487427 637.188599,751.514893 
	C636.943237,742.911804 637.046082,734.298706 637.046082,725.782471 
	C642.259521,724.681824 642.259521,724.681824 646.625366,734.030762 
	C646.756104,731.223633 646.886841,728.416443 647.030457,725.331665 
	C648.535095,725.331665 649.923828,725.331665 651.550232,725.331665 
	C651.550232,734.828918 651.550232,744.075684 651.550232,753.630493 
	C649.986816,753.758545 648.564697,753.875061 646.597961,754.036133 
	C645.402771,749.687805 644.236511,745.444641 642.945557,740.758545 
z"/>
<path fill="#EAFEEA" opacity="1.000000" stroke="none" 
	d="
M590.028076,732.444824 
	C590.030090,729.900085 590.030090,727.770508 590.030090,725.354858 
	C591.871094,725.354858 593.242004,725.354858 594.829346,725.354858 
	C594.829346,734.787903 594.829346,744.050659 594.829346,753.621948 
	C593.214783,753.621948 591.664124,753.621948 589.779236,753.621948 
	C588.375244,748.638245 586.957947,743.607483 585.540649,738.576660 
	C585.299622,738.608704 585.058655,738.640686 584.817627,738.672668 
	C584.817627,743.608948 584.817627,748.545166 584.817627,753.481445 
	C584.333557,753.813782 583.849487,754.146118 583.365479,754.478455 
	C582.319641,753.334839 580.403687,752.218079 580.367493,751.043396 
	C580.107117,742.596313 580.228088,734.137512 580.228088,723.903687 
	C583.165466,725.425232 585.735046,725.974915 586.890747,727.557190 
	C588.263855,729.437073 588.421326,732.204895 589.879150,734.342041 
	C589.928162,733.848022 589.977112,733.354004 590.028076,732.444824 
z"/>
<path fill="#EDFEED" opacity="1.000000" stroke="none" 
	d="
M772.348022,726.820312 
	C773.105408,729.318115 773.651123,731.497864 774.308105,734.121826 
	C772.190857,734.215881 770.756531,734.279663 769.112000,734.352722 
	C768.990723,733.098511 769.155457,731.994019 768.734070,731.200867 
	C768.273865,730.334778 767.271179,729.756897 766.504944,729.053345 
	C765.959717,729.805786 764.960388,730.547302 764.941956,731.312439 
	C764.810181,736.791138 764.812622,742.276428 764.962524,747.754456 
	C764.981995,748.465271 766.089600,749.146301 766.693176,749.841187 
	C767.395264,749.067200 768.680603,748.294739 768.682800,747.518860 
	C768.687866,745.684509 768.130859,743.837341 767.708069,742.016968 
	C767.408936,740.729065 766.957397,739.476624 766.482971,737.907288 
	C769.286499,737.907288 771.368469,737.907288 773.864929,737.907288 
	C773.864929,741.279724 774.056030,744.409180 773.821228,747.506348 
	C773.445679,752.460938 771.230408,754.406799 766.534607,754.347107 
	C761.871155,754.287842 759.824280,752.237549 759.683411,747.102417 
	C759.551147,742.284241 759.306580,737.424011 759.794434,732.652100 
	C760.054504,730.108215 761.234314,726.187073 762.934082,725.601501 
	C765.583618,724.688660 769.028564,726.084595 772.348022,726.820312 
z"/>
<path fill="#EDFEED" opacity="1.000000" stroke="none" 
	d="
M561.913757,730.341248 
	C562.630737,729.774170 563.687622,729.354675 564.008545,728.615601 
	C565.884155,724.296570 569.564453,724.125427 573.238220,724.826721 
	C576.954041,725.536194 577.921814,728.499695 577.843750,732.015442 
	C577.736938,736.822998 577.700317,741.638428 577.854187,746.443420 
	C577.971863,750.118958 577.127991,753.328979 573.233093,754.146912 
	C569.089966,755.017029 565.210999,754.359314 563.774963,749.334351 
	C563.618347,748.786499 562.962830,748.381104 562.233704,747.919067 
	C561.928101,747.048523 561.927490,746.168579 562.441406,745.328979 
	C562.632874,741.068054 562.309875,736.766846 561.976929,732.250977 
	C561.949280,731.471375 561.931519,730.906311 561.913757,730.341248 
M568.666687,738.524780 
	C568.696228,741.502930 568.581177,744.493958 568.846008,747.451050 
	C568.922485,748.305054 570.090759,749.061340 570.758484,749.862427 
	C571.457581,749.090759 572.736206,748.338257 572.762451,747.544312 
	C572.942810,742.088135 572.946594,736.620300 572.763245,731.164429 
	C572.738464,730.425537 571.352173,729.732361 570.596375,729.018005 
	C570.006775,729.716370 569.006897,730.360413 568.906006,731.123413 
	C568.626099,733.241638 568.720276,735.409363 568.666687,738.524780 
z"/>
<path fill="#ECFEEB" opacity="1.000000" stroke="none" 
	d="
M792.133911,729.033020 
	C794.050537,724.357544 797.993713,723.929932 802.033447,724.903748 
	C806.032471,725.867798 806.308105,729.318237 806.191711,732.849792 
	C806.044861,737.306396 806.487549,741.805847 806.028870,746.219543 
	C805.766418,748.744446 804.827576,752.480042 803.102478,753.261047 
	C800.723328,754.338135 797.305481,753.211365 794.351746,752.865356 
	C793.614685,752.778992 792.950928,752.067322 792.297913,750.879517 
	C792.272827,743.088318 792.203369,736.060669 792.133911,729.033020 
M801.191040,742.359192 
	C801.190796,739.193420 801.396179,736.007751 801.092773,732.871338 
	C800.965271,731.552917 799.762024,730.338562 799.047852,729.076843 
	C798.350769,730.404724 797.175171,731.689880 797.051941,733.068970 
	C796.756653,736.375061 796.671143,739.758240 797.052307,743.046387 
	C797.320679,745.360962 798.494812,747.570557 799.264526,749.827026 
	C799.906677,747.651917 800.548828,745.476868 801.191040,742.359192 
z"/>
<path fill="#EAFEEA" opacity="1.000000" stroke="none" 
	d="
M790.451355,751.983032 
	C789.220459,752.615295 788.034668,753.492676 786.731628,753.732300 
	C786.334412,753.805298 785.242432,752.171265 785.119385,751.233643 
	C784.861633,749.269226 785.271912,747.209351 784.951965,745.263611 
	C784.730408,743.916626 783.746521,742.695068 783.103210,741.417480 
	C782.595093,741.595276 782.087036,741.773071 781.578979,741.950928 
	C781.578979,745.708679 781.578979,749.466492 781.578979,753.579590 
	C779.770630,753.728882 778.390015,753.842896 776.605042,753.990295 
	C776.605042,744.307739 776.605042,734.947327 776.605042,724.990173 
	C781.227417,725.866150 786.421631,722.683594 789.824890,729.097656 
	C789.205017,737.247375 789.312561,744.627563 790.451355,751.983032 
M781.281616,735.208679 
	C782.291077,735.588196 783.300598,735.967773 784.310059,736.347351 
	C784.557312,734.782959 785.162231,733.161438 784.924438,731.674622 
	C784.769470,730.705688 783.389465,729.932678 782.461060,728.971252 
	C781.765137,729.933838 781.432434,730.184021 781.412659,730.456848 
	C781.318115,731.762695 781.308350,733.074646 781.281616,735.208679 
z"/>
<path fill="#F5FEF4" opacity="1.000000" stroke="none" 
	d="
M676.089294,754.324951 
	C671.117493,754.538879 669.322754,751.390747 669.139160,747.743774 
	C668.765320,740.316956 669.027283,732.858215 669.027283,725.247681 
	C670.875366,725.247681 672.315613,725.247681 674.617188,725.247681 
	C674.617188,733.522339 674.617188,741.664062 674.617188,749.805786 
	C675.315613,749.916626 676.014099,750.027466 676.712524,750.138306 
	C677.160522,748.593628 677.961365,747.056702 677.995239,745.502991 
	C678.139465,738.889832 678.056580,732.271729 678.056580,725.372925 
	C679.890137,725.372925 681.260559,725.372925 683.050842,725.372925 
	C683.050842,733.175171 683.251831,740.799622 682.964905,748.405640 
	C682.824341,752.130493 680.629089,754.543518 676.089294,754.324951 
z"/>
<path fill="#ECFEEB" opacity="1.000000" stroke="none" 
	d="
M540.961121,749.785400 
	C540.239136,746.696899 542.808899,742.807678 537.476196,741.327881 
	C537.476196,745.497803 537.476196,749.344116 537.476196,753.608765 
	C535.559875,753.713379 534.203308,753.787415 532.551147,753.877625 
	C532.551147,744.237610 532.551147,734.981995 532.551147,725.041260 
	C535.157410,725.041260 537.586670,725.034485 540.015869,725.042725 
	C544.550293,725.058228 546.692993,727.743286 545.846436,731.795837 
	C544.326721,739.070557 547.143188,746.281677 545.560547,753.528320 
	C545.305298,754.697021 540.572388,754.518738 540.961121,749.785400 
M539.914734,729.862305 
	C536.648010,729.995483 536.252563,731.359985 537.925110,737.098389 
	C542.378479,736.210449 541.043640,733.129395 539.914734,729.862305 
z"/>
<path fill="#EDFEED" opacity="1.000000" stroke="none" 
	d="
M619.934814,729.002258 
	C621.677002,724.379089 625.562256,724.031921 629.444763,724.825317 
	C633.423645,725.638306 634.130676,728.907349 633.992554,732.578247 
	C633.823547,737.065918 633.783081,741.573181 634.005493,746.056152 
	C634.187805,749.729309 633.480347,753.064087 629.728638,754.074402 
	C626.138062,755.041260 622.346497,754.735901 620.173340,749.823242 
	C619.986023,742.376526 619.960449,735.689392 619.934814,729.002258 
M629.014771,743.278931 
	C629.011963,739.476379 629.149231,735.664917 628.910034,731.877319 
	C628.848450,730.900879 627.603516,729.999084 626.902100,729.063049 
	C626.217590,729.846985 624.964905,730.613403 624.940247,731.417542 
	C624.773010,736.863770 624.799255,742.319763 624.954529,747.767151 
	C624.974670,748.473450 626.094299,749.148315 626.704651,749.837769 
	C627.458252,749.118896 628.541809,748.526489 628.878845,747.647827 
	C629.267761,746.633789 628.998291,745.367249 629.014771,743.278931 
z"/>
<path fill="#F0FEF0" opacity="1.000000" stroke="none" 
	d="
M747.045898,724.957642 
	C749.004272,727.646484 750.594421,730.226624 752.783569,733.778503 
	C749.620300,734.144470 748.246460,734.303406 746.471008,734.508789 
	C746.299194,733.325562 746.353882,732.338013 745.988647,731.543518 
	C745.563721,730.619202 744.770813,729.864075 744.137695,729.035522 
	C743.434204,729.805115 742.146179,730.556274 742.121399,731.347046 
	C741.949463,736.829956 741.974609,742.322937 742.128540,747.807312 
	C742.148071,748.505493 743.280273,749.172485 743.896973,749.853882 
	C744.599365,749.094604 745.915710,748.310181 745.885742,747.581116 
	C745.804810,745.614014 745.151367,743.670227 744.722839,741.717590 
	C744.461365,740.526123 744.195923,739.335510 743.878052,737.899536 
	C746.542236,737.899536 748.647278,737.899536 751.123901,737.899536 
	C751.123901,741.105469 751.209351,744.074341 751.104858,747.036621 
	C750.926331,752.099243 748.839905,754.268921 744.275818,754.339600 
	C739.354614,754.415771 737.202332,752.326721 737.037354,746.983337 
	C736.903931,742.660950 737.005005,738.331116 737.011841,734.004578 
	C737.024719,725.830200 738.579895,724.360046 747.045898,724.957642 
z"/>
<path fill="#F2FFF2" opacity="1.000000" stroke="none" 
	d="
M814.145752,730.160645 
	C814.146057,735.970276 814.060974,741.300781 814.217102,746.624146 
	C814.249023,747.712402 815.185852,748.774231 815.705566,749.848206 
	C816.474121,748.788147 817.876953,747.746399 817.908203,746.665100 
	C818.109619,739.695923 818.011230,732.718079 818.011230,725.801086 
	C821.627869,724.198853 823.091736,725.068726 822.983276,728.912476 
	C822.809509,735.068054 822.970764,741.232422 822.921387,747.392456 
	C822.889343,751.393127 821.260254,754.092590 816.855103,754.324585 
	C811.959351,754.582336 809.330750,752.827148 809.101746,748.032104 
	C808.746521,740.591248 809.007996,733.120911 809.007996,725.322876 
	C810.686096,725.235901 812.088135,725.163269 813.852539,725.071838 
	C813.961487,726.784912 814.053528,728.231934 814.145752,730.160645 
z"/>
<path fill="#EDFEED" opacity="1.000000" stroke="none" 
	d="
M661.226196,736.537476 
	C665.300842,740.013672 668.467407,743.462830 667.243530,749.093323 
	C666.242737,753.697632 663.115234,754.633057 659.034241,754.345947 
	C654.691040,754.040405 653.506714,750.958313 653.467224,747.484497 
	C653.455933,746.488525 655.601196,745.468079 657.369507,743.924927 
	C657.834045,745.917175 657.793823,746.695374 658.161194,747.125305 
	C658.966980,748.068481 659.979126,748.835266 660.907104,749.674072 
	C661.304077,748.367126 662.340759,746.817017 661.956787,745.806885 
	C661.284485,744.038452 659.733948,742.606262 658.562744,741.024780 
	C657.008606,738.926086 654.533447,736.972229 654.156799,734.676758 
	C653.700684,731.897034 654.150330,728.055237 655.853638,726.125488 
	C657.202087,724.597778 661.513550,724.241943 663.626953,725.237976 
	C665.747742,726.237305 666.776184,729.554443 668.224976,731.766602 
	C662.616089,736.092041 662.837463,728.551086 658.122009,729.119751 
	C659.205872,731.823608 660.093750,734.038330 661.226196,736.537476 
z"/>
<path fill="#F0FEF0" opacity="1.000000" stroke="none" 
	d="
M561.926941,745.288696 
	C561.927490,746.168579 561.928101,747.048523 561.919189,748.258240 
	C561.268982,753.925781 557.639160,754.883423 553.237244,754.215027 
	C548.100769,753.434937 548.210449,749.457520 549.160034,744.467773 
	C550.431274,745.503357 551.707825,746.532532 552.972046,747.576721 
	C553.839355,748.293152 554.689453,749.030334 555.547241,749.758240 
	C556.020569,748.621582 557.192139,747.145508 556.835693,746.412231 
	C555.786011,744.252869 554.072937,742.426086 552.727600,740.397522 
	C551.207886,738.106018 549.211670,735.902771 548.500732,733.359802 
	C547.586304,730.088867 548.278564,726.622803 551.972412,725.057678 
	C556.247131,723.246399 559.614746,724.858093 561.917725,729.905396 
	C561.931519,730.906311 561.949280,731.471375 561.645142,732.539124 
	C559.893982,732.499634 558.388184,732.096619 557.060791,731.368530 
	C556.102295,730.842773 555.380981,729.884583 554.553894,729.119263 
	C554.181030,730.426941 553.143127,732.042175 553.575623,732.977478 
	C554.442139,734.851318 556.226685,736.275574 557.423523,738.027954 
	C559.028198,740.377502 560.435120,742.862061 561.926941,745.288696 
z"/>
<path fill="#F0FEF0" opacity="1.000000" stroke="none" 
	d="
M618.090820,749.018921 
	C617.028198,753.813904 613.544250,754.817932 609.380066,754.285706 
	C605.228577,753.755066 604.195923,750.504456 604.081726,747.011475 
	C603.913208,741.857300 603.890381,736.687622 604.095032,731.536011 
	C604.226196,728.233521 605.285522,725.061096 609.257568,724.721497 
	C612.943176,724.406494 616.855469,724.282104 617.926636,730.077942 
	C617.770874,734.973755 617.770874,734.973755 614.656677,734.375366 
	C613.316406,732.240540 612.295471,730.614502 611.274597,728.988403 
	C610.538940,730.940063 609.394775,732.844421 609.162170,734.854248 
	C608.803101,737.957153 608.840332,741.155090 609.152039,744.268372 
	C609.342834,746.173462 610.361267,747.995728 611.007935,749.855164 
	C611.816895,748.006226 612.626282,746.157471 613.434448,744.308228 
	C613.562805,744.014526 613.685974,743.718445 613.877319,743.268921 
	C615.179810,743.268921 616.533813,743.268921 618.090820,743.268921 
	C618.090820,745.403687 618.090820,747.211304 618.090820,749.018921 
z"/>
<path fill="#F0FEF0" opacity="1.000000" stroke="none" 
	d="
M484.009766,736.402893 
	C484.783051,737.749268 485.138702,739.050110 485.580261,740.665161 
	C483.183014,740.894287 481.433075,741.061584 479.530304,741.243469 
	C479.530304,743.800232 479.530304,746.089600 479.530304,748.921143 
	C481.689636,749.094849 483.920471,749.274353 486.646179,749.493713 
	C486.772247,750.748535 486.906616,752.085693 487.067871,753.690857 
	C482.881744,753.690857 479.102509,753.690857 474.991577,753.690857 
	C474.991577,744.279785 474.991577,734.892517 474.991577,725.278198 
	C478.903778,725.278198 482.667297,725.278198 486.725830,725.278198 
	C486.725830,726.604187 486.725830,727.830566 486.725830,729.148560 
	C484.354919,729.324646 482.086212,729.493164 479.600647,729.677856 
	C479.600647,731.770935 479.600647,733.554199 479.600647,735.935913 
	C480.781311,736.060608 482.186707,736.208984 484.009766,736.402893 
z"/>
<path fill="#F5FEF4" opacity="1.000000" stroke="none" 
	d="
M825.677002,749.567200 
	C825.676880,741.301941 825.676880,733.487732 825.676880,725.755737 
	C834.200928,724.052185 838.070129,725.240417 839.038879,729.665405 
	C840.838928,737.887390 838.729675,741.295349 830.333313,742.945740 
	C830.333313,744.618225 830.333252,746.404297 830.333252,748.190369 
	C830.333252,749.848877 830.333313,751.507446 830.333313,753.111450 
	C826.055664,754.105591 826.055664,754.105591 825.677002,749.567200 
M831.592590,738.078064 
	C832.435120,736.473877 833.737671,734.931702 833.965027,733.244629 
	C834.127747,732.036987 832.849670,730.635193 832.214539,729.320068 
	C831.557739,730.540283 830.530151,731.705811 830.340149,732.994812 
	C830.113464,734.532532 830.604309,736.176147 831.592590,738.078064 
z"/>
<path fill="#EAFEEA" opacity="1.000000" stroke="none" 
	d="
M524.889465,749.215698 
	C526.672302,749.227905 527.991028,749.227905 529.755920,749.227905 
	C529.870911,750.802368 529.968994,752.144897 530.083557,753.712402 
	C525.904053,753.712402 522.148438,753.712402 518.133911,753.712402 
	C518.133911,744.236145 518.133911,734.978088 518.133911,725.729248 
	C526.807617,723.748474 529.942688,724.627563 529.729553,729.153503 
	C527.628784,729.305847 525.503174,729.459961 523.058105,729.637268 
	C523.058105,731.641235 523.058105,733.560913 523.058105,735.752930 
	C524.537964,737.387268 530.463867,734.443787 528.321106,740.667908 
	C526.692627,740.848511 524.941833,741.042603 522.006226,741.368164 
	C522.875671,744.184326 523.650513,746.693970 524.889465,749.215698 
z"/>
<path fill="#E6FEE5" opacity="1.000000" stroke="none" 
	d="
M705.157349,738.984009 
	C705.157349,744.140930 705.157349,748.796631 705.157349,753.692993 
	C703.466919,753.692993 702.054626,753.692993 700.271545,753.692993 
	C700.271545,745.669800 700.271545,737.883423 700.271545,731.036987 
	C697.964355,729.293579 696.322266,728.052673 694.680176,726.811768 
	C694.966125,726.319702 695.252136,725.827576 695.538147,725.335510 
	C700.132751,725.335510 704.727417,725.335510 709.339478,725.335510 
	C710.128845,728.930481 710.128845,728.930481 705.157349,730.236389 
	C705.157349,732.900391 705.157349,735.691589 705.157349,738.984009 
z"/>
<path fill="#F0FEF0" opacity="1.000000" stroke="none" 
	d="
M509.843201,729.423218 
	C508.812225,731.684814 508.228302,733.910828 507.542358,736.525635 
	C510.005371,736.828308 511.732147,737.040466 513.737488,737.286926 
	C513.737488,738.514099 513.737488,739.745422 513.737488,741.140869 
	C512.079712,741.309448 510.457733,741.474365 508.305481,741.693237 
	C508.305481,745.603027 508.305481,749.485352 508.305481,753.631287 
	C506.379425,753.631287 504.992371,753.631287 503.321899,753.631287 
	C503.321899,744.310364 503.321899,735.072449 503.321899,725.823608 
	C511.475708,723.638062 515.554932,724.699524 515.142517,729.387573 
	C513.553894,729.387573 511.922089,729.387573 509.843201,729.423218 
z"/>
<path fill="#EDFEED" opacity="1.000000" stroke="none" 
	d="
M500.153687,729.327026 
	C498.075928,729.371826 496.419312,729.371826 494.424225,729.371826 
	C494.424225,731.849487 494.424225,734.073853 494.424225,736.703613 
	C495.962006,736.867310 497.699646,737.052185 499.685913,737.263611 
	C499.685913,738.569153 499.685913,739.798218 499.685913,741.159851 
	C497.912445,741.332458 496.278351,741.491455 494.155334,741.698059 
	C494.155334,745.653992 494.155334,749.563416 494.155334,753.658813 
	C492.268585,753.658813 490.884949,753.658813 489.275909,753.658813 
	C489.275909,744.154175 489.275909,734.905945 489.275909,725.351257 
	C493.269135,725.351257 497.036285,725.351257 501.703827,725.351257 
	C501.312469,726.713989 500.943665,727.998169 500.153687,729.327026 
z"/>
<path fill="#E6FEE5" opacity="1.000000" stroke="none" 
	d="
M690.449951,725.333008 
	C690.826721,733.175598 690.826721,740.815613 690.826721,747.423523 
	C693.064270,751.039124 699.901794,746.145508 698.471924,753.632446 
	C694.544861,753.632446 690.641479,753.632446 686.118164,753.632446 
	C686.118164,744.796814 686.021790,736.028442 686.289795,727.271179 
	C686.312805,726.519714 688.754822,725.842224 690.449951,725.333008 
z"/>
<path fill="#E2FEE1" opacity="1.000000" stroke="none" 
	d="
M466.285217,740.926392 
	C466.285217,735.495056 466.285217,730.548584 466.285217,725.317017 
	C468.317902,725.317017 469.869171,725.317017 471.793365,725.317017 
	C471.793365,733.086548 472.102478,740.687012 471.679169,748.246460 
	C471.419037,752.892273 468.798492,754.168152 462.539520,753.553528 
	C462.529755,749.116516 468.586639,746.356323 466.285217,740.926392 
z"/>
<path fill="#18F713" opacity="0.000000" stroke="none" 
	d="
M618.327148,749.139526 
	C618.090820,747.211304 618.090820,745.403687 618.090820,743.268921 
	C616.533813,743.268921 615.179810,743.268921 613.877319,743.268921 
	C613.685974,743.718445 613.562805,744.014526 613.434448,744.308228 
	C612.626282,746.157471 611.816895,748.006226 611.007935,749.855164 
	C610.361267,747.995728 609.342834,746.173462 609.152039,744.268372 
	C608.840332,741.155090 608.803101,737.957153 609.162170,734.854248 
	C609.394775,732.844421 610.538940,730.940063 611.274597,728.988403 
	C612.295471,730.614502 613.316406,732.240540 614.656677,734.375366 
	C617.770874,734.973755 617.770874,734.973755 618.103516,730.394287 
	C618.574097,729.718201 619.019409,729.463135 619.699829,729.105225 
	C619.960449,735.689392 619.986023,742.376526 619.991394,749.531982 
	C619.501953,749.753601 619.032776,749.506836 618.327148,749.139526 
z"/>
<path fill="#C0F2BF" opacity="1.000000" stroke="none" 
	d="
M755.922852,435.427185 
	C756.228027,434.536133 756.579163,434.006561 757.012695,433.152863 
	C765.433960,449.973511 772.748840,467.494751 777.214417,486.029968 
	C770.132507,469.282898 763.050659,452.535797 755.922852,435.427185 
z"/>
<path fill="#F2FFF2" opacity="1.000000" stroke="none" 
	d="
M712.040283,748.795410 
	C712.040283,740.859985 712.040283,733.401794 712.040283,725.531372 
	C713.578857,725.324829 714.965576,725.138733 716.747314,724.899536 
	C716.747314,734.567810 716.747314,743.939453 716.747314,753.610718 
	C715.421204,753.610718 714.038208,753.610718 712.297302,753.610718 
	C712.211365,752.160645 712.125854,750.716614 712.040283,748.795410 
z"/>
<path fill="#D5F4D4" opacity="1.000000" stroke="none" 
	d="
M296.836395,762.471313 
	C297.045258,761.724731 297.411804,761.279968 297.843750,760.543213 
	C307.203796,769.356079 316.498444,778.461060 325.793091,787.566040 
	C314.854889,780.864075 305.803864,771.959045 296.836395,762.471313 
z"/>
<path fill="#D5F4D4" opacity="1.000000" stroke="none" 
	d="
M337.766602,799.118286 
	C336.020203,797.894775 334.591888,796.842468 332.919373,795.610229 
	C337.374908,794.931091 344.921112,799.778442 348.255188,806.227478 
	C344.865021,803.914856 341.474854,801.602173 337.766602,799.118286 
z"/>
<path fill="#21F01D" opacity="0.000000" stroke="none" 
	d="
M790.647034,751.861938 
	C789.312561,744.627563 789.205017,737.247375 789.991455,729.419983 
	C790.521851,729.004700 790.982422,729.016846 791.788452,729.031006 
	C792.203369,736.060669 792.272827,743.088318 792.169189,750.557129 
	C791.611511,751.245850 791.227112,751.493347 790.647034,751.861938 
z"/>
<path fill="#21F01D" opacity="0.000000" stroke="none" 
	d="
M427.794373,596.583130 
	C435.716919,575.812561 443.220520,554.870056 451.659363,534.311401 
	C464.609161,502.763031 479.949646,472.359222 498.290771,443.571381 
	C504.887115,433.217865 512.366821,423.427124 519.946350,413.339294 
	C520.667908,413.595734 520.886475,413.892395 521.105042,414.189056 
	C510.024200,432.132477 497.955383,449.552582 488.105774,468.148193 
	C474.979950,492.929016 463.175323,518.440308 451.577454,543.989380 
	C443.486450,561.812927 436.694550,580.226318 428.891663,598.454895 
	C428.238739,597.883423 428.016571,597.233276 427.794373,596.583130 
z"/>
<path fill="#3FEE3C" opacity="0.000000" stroke="none" 
	d="
M423.853455,503.386414 
	C423.889893,504.759705 423.889893,505.747437 423.889893,506.834778 
	C420.524841,500.952820 419.486145,487.531799 421.250153,473.363708 
	C421.711487,473.327332 422.172791,473.290985 422.634125,473.254608 
	C423.028412,483.170044 423.422729,493.085480 423.853455,503.386414 
z"/>
<path fill="#3FEE3C" opacity="0.000000" stroke="none" 
	d="
M427.582275,596.887451 
	C428.016571,597.233276 428.238739,597.883423 428.720062,598.759155 
	C426.898590,604.992188 424.818024,610.999573 422.737427,617.006958 
	C422.494537,616.916443 422.251648,616.825928 422.008759,616.735413 
	C421.938721,616.847168 421.868652,616.958923 421.798615,617.070679 
	C423.655792,610.444397 425.513000,603.818115 427.582275,596.887451 
z"/>
<path fill="#3FEE3C" opacity="0.000000" stroke="none" 
	d="
M521.391602,414.008057 
	C520.886475,413.892395 520.667908,413.595734 520.217407,413.147308 
	C523.935059,407.928070 527.884521,402.860565 531.834045,397.793091 
	C532.249939,398.106384 532.665833,398.419647 533.081726,398.732941 
	C529.280518,403.764343 525.479309,408.795715 521.391602,414.008057 
z"/>
<path fill="#3FEE3C" opacity="0.000000" stroke="none" 
	d="
M422.510315,469.875031 
	C422.546844,469.573944 422.495972,469.363831 422.445068,469.153717 
	C422.437683,469.424469 422.430267,469.695251 422.510315,469.875031 
z"/>
<path fill="#18F713" opacity="0.000000" stroke="none" 
	d="
M568.666626,738.041138 
	C568.720276,735.409363 568.626099,733.241638 568.906006,731.123413 
	C569.006897,730.360413 570.006775,729.716370 570.596375,729.018005 
	C571.352173,729.732361 572.738464,730.425537 572.763245,731.164429 
	C572.946594,736.620300 572.942810,742.088135 572.762451,747.544312 
	C572.736206,748.338257 571.457581,749.090759 570.758484,749.862427 
	C570.090759,749.061340 568.922485,748.305054 568.846008,747.451050 
	C568.581177,744.493958 568.696228,741.502930 568.666626,738.041138 
z"/>
<path fill="#05F600" opacity="0.000000" stroke="none" 
	d="
M562.441406,745.328979 
	C560.435120,742.862061 559.028198,740.377502 557.423523,738.027954 
	C556.226685,736.275574 554.442139,734.851318 553.575623,732.977478 
	C553.143127,732.042175 554.181030,730.426941 554.553894,729.119263 
	C555.380981,729.884583 556.102295,730.842773 557.060791,731.368530 
	C558.388184,732.096619 559.893982,732.499634 561.655090,732.753662 
	C562.309875,736.766846 562.632874,741.068054 562.441406,745.328979 
z"/>
<path fill="#09F604" opacity="0.000000" stroke="none" 
	d="
M801.191040,742.830444 
	C800.548828,745.476868 799.906677,747.651917 799.264526,749.827026 
	C798.494812,747.570557 797.320679,745.360962 797.052307,743.046387 
	C796.671143,739.758240 796.756653,736.375061 797.051941,733.068970 
	C797.175171,731.689880 798.350769,730.404724 799.047852,729.076843 
	C799.762024,730.338562 800.965271,731.552917 801.092773,732.871338 
	C801.396179,736.007751 801.190796,739.193420 801.191040,742.830444 
z"/>
<path fill="#21F01D" opacity="0.000000" stroke="none" 
	d="
M781.275024,734.796570 
	C781.308350,733.074646 781.318115,731.762695 781.412659,730.456848 
	C781.432434,730.184021 781.765137,729.933838 782.461060,728.971252 
	C783.389465,729.932678 784.769470,730.705688 784.924438,731.674622 
	C785.162231,733.161438 784.557312,734.782959 784.310059,736.347351 
	C783.300598,735.967773 782.291077,735.588196 781.275024,734.796570 
z"/>
<path fill="#21F01D" opacity="0.000000" stroke="none" 
	d="
M540.222229,730.122437 
	C541.043640,733.129395 542.378479,736.210449 537.925110,737.098389 
	C536.252563,731.359985 536.648010,729.995483 540.222229,730.122437 
z"/>
<path fill="#09F604" opacity="0.000000" stroke="none" 
	d="
M629.014771,743.744629 
	C628.998291,745.367249 629.267761,746.633789 628.878845,747.647827 
	C628.541809,748.526489 627.458252,749.118896 626.704651,749.837769 
	C626.094299,749.148315 624.974670,748.473450 624.954529,747.767151 
	C624.799255,742.319763 624.773010,736.863770 624.940247,731.417542 
	C624.964905,730.613403 626.217590,729.846985 626.902100,729.063049 
	C627.603516,729.999084 628.848450,730.900879 628.910034,731.877319 
	C629.149231,735.664917 629.011963,739.476379 629.014771,743.744629 
z"/>
<path fill="#21F01D" opacity="0.000000" stroke="none" 
	d="
M831.188477,737.925964 
	C830.604309,736.176147 830.113464,734.532532 830.340149,732.994812 
	C830.530151,731.705811 831.557739,730.540283 832.214478,729.320068 
	C832.849670,730.635193 834.127747,732.036987 833.965027,733.244629 
	C833.737671,734.931702 832.435120,736.473877 831.188477,737.925964 
z"/>
</svg>